<svg width="25" height="25" viewBox="0 0 25 25" fill="none" xmlns="http://www.w3.org/2000/svg">
<path d="M4.875 10.4773C4.875 9.82804 4.88416 9.7001 4.91394 9.59652C4.94842 9.47658 5.00505 9.36416 5.0809 9.26506C5.14641 9.17947 5.24377 9.09596 5.7655 8.70949L11.5655 4.4132C12.3197 3.85452 12.4809 3.75699 12.6227 3.72001C12.7881 3.67688 12.9619 3.67688 13.1273 3.72001C13.2691 3.75699 13.4303 3.85452 14.1845 4.4132L19.9845 8.70949C20.5062 9.09596 20.6036 9.17947 20.6691 9.26506C20.7449 9.36416 20.8016 9.47658 20.8361 9.59652C20.8658 9.7001 20.875 9.82804 20.875 10.4773V18.9987C20.875 19.5753 20.8742 19.9476 20.8511 20.2309C20.8289 20.5026 20.7912 20.6033 20.766 20.6527C20.6701 20.8409 20.5172 20.9939 20.329 21.0897C20.2796 21.1149 20.1788 21.1526 19.9072 21.1748C19.6238 21.198 19.2516 21.1987 18.675 21.1987H7.075C6.49845 21.1987 6.12617 21.198 5.84284 21.1748C5.57117 21.1526 5.47045 21.1149 5.42101 21.0897C5.23285 20.9939 5.07987 20.8409 4.98399 20.6527C4.9588 20.6033 4.92112 20.5026 4.89893 20.2309C4.87578 19.9476 4.875 19.5753 4.875 18.9987V10.4773Z" stroke="#2E59E7" stroke-width="2"/>
<rect x="9.875" y="16.1987" width="6" height="2" rx="1" fill="#2E59E7"/>
</svg>
