<svg width="24" height="25" viewBox="0 0 24 25" fill="none" xmlns="http://www.w3.org/2000/svg">
<path d="M3.28104 17.7149C3.3566 17.4505 3.31762 17.1678 3.18761 16.9254C2.10814 14.913 1.748 12.5869 2.17528 10.3348C2.62938 7.94122 3.94165 5.79577 5.86566 4.30129C7.78967 2.80681 10.1931 2.06611 12.6246 2.21826C15.056 2.37042 17.3484 3.40497 19.071 5.12765C20.7937 6.85033 21.8283 9.14264 21.9805 11.5741C22.1326 14.0056 21.3919 16.409 19.8975 18.333C18.403 20.2571 16.2576 21.5693 13.864 22.0234C11.6119 22.4507 9.28582 22.0906 7.27337 21.0111C7.031 20.8811 6.74829 20.8422 6.48383 20.9177L3.73071 21.7043C2.97637 21.9198 2.27896 21.2224 2.49448 20.468L3.28104 17.7149Z" stroke="#797F96" stroke-width="2"/>
<path d="M7.49988 13.3274C8.1212 13.3274 8.62488 12.8237 8.62488 12.2024C8.62488 11.5811 8.1212 11.0774 7.49988 11.0774C6.87856 11.0774 6.37488 11.5811 6.37488 12.2024C6.37488 12.8237 6.87856 13.3274 7.49988 13.3274Z" fill="#797F96"/>
<path d="M12 13.3274C12.6213 13.3274 13.125 12.8237 13.125 12.2024C13.125 11.5811 12.6213 11.0774 12 11.0774C11.3787 11.0774 10.875 11.5811 10.875 12.2024C10.875 12.8237 11.3787 13.3274 12 13.3274Z" fill="#797F96"/>
<path d="M16.5001 13.3274C17.1214 13.3274 17.6251 12.8237 17.6251 12.2024C17.6251 11.5811 17.1214 11.0774 16.5001 11.0774C15.8788 11.0774 15.3751 11.5811 15.3751 12.2024C15.3751 12.8237 15.8788 13.3274 16.5001 13.3274Z" fill="#797F96"/>
</svg>
