<svg width="24" height="25" viewBox="0 0 24 25" fill="none" xmlns="http://www.w3.org/2000/svg">
<mask id="mask0_2004_1239" style="mask-type:alpha" maskUnits="userSpaceOnUse" x="0" y="0" width="24" height="25">
<rect y="0.198608" width="24" height="24" fill="#D9D9D9"/>
</mask>
<g mask="url(#mask0_2004_1239)">
<path d="M9.5 16.1986C7.68333 16.1986 6.14583 15.5694 4.8875 14.3111C3.62917 13.0528 3 11.5153 3 9.69861C3 7.88194 3.62917 6.34444 4.8875 5.08611C6.14583 3.82778 7.68333 3.19861 9.5 3.19861C11.3167 3.19861 12.8542 3.82778 14.1125 5.08611C15.3708 6.34444 16 7.88194 16 9.69861C16 10.4319 15.8833 11.1236 15.65 11.7736C15.4167 12.4236 15.1 12.9986 14.7 13.4986L20.3 19.0986C20.4833 19.2819 20.575 19.5153 20.575 19.7986C20.575 20.0819 20.4833 20.3153 20.3 20.4986C20.1167 20.6819 19.8833 20.7736 19.6 20.7736C19.3167 20.7736 19.0833 20.6819 18.9 20.4986L13.3 14.8986C12.8 15.2986 12.225 15.6153 11.575 15.8486C10.925 16.0819 10.2333 16.1986 9.5 16.1986ZM9.5 14.1986C10.75 14.1986 11.8125 13.7611 12.6875 12.8861C13.5625 12.0111 14 10.9486 14 9.69861C14 8.44861 13.5625 7.38611 12.6875 6.51111C11.8125 5.63611 10.75 5.19861 9.5 5.19861C8.25 5.19861 7.1875 5.63611 6.3125 6.51111C5.4375 7.38611 5 8.44861 5 9.69861C5 10.9486 5.4375 12.0111 6.3125 12.8861C7.1875 13.7611 8.25 14.1986 9.5 14.1986Z" fill="#797F96"/>
</g>
</svg>
