<svg width="25" height="25" viewBox="0 0 25 25" fill="none" xmlns="http://www.w3.org/2000/svg">
<path d="M18.375 13.1987C19.7557 13.1987 20.875 12.0794 20.875 10.6987C20.875 9.31802 19.7557 8.19873 18.375 8.19873C16.9943 8.19873 15.875 9.31802 15.875 10.6987C15.875 12.0794 16.9943 13.1987 18.375 13.1987Z" stroke="#797F96" stroke-width="2"/>
<path d="M8.375 10.1987C10.308 10.1987 11.875 8.63173 11.875 6.69873C11.875 4.76573 10.308 3.19873 8.375 3.19873C6.442 3.19873 4.875 4.76573 4.875 6.69873C4.875 8.63173 6.442 10.1987 8.375 10.1987Z" stroke="#797F96" stroke-width="2"/>
<path d="M15.375 21.1987L15.2067 18.8425C15.0198 16.226 12.8426 14.1987 10.2194 14.1987H6.5306C3.9074 14.1987 1.7302 16.226 1.5433 18.8425L1.375 21.1987" stroke="#797F96" stroke-width="2" stroke-linecap="round"/>
<path d="M23.375 21.1987L23.313 20.7026C23.0628 18.7009 21.3612 17.1987 19.3439 17.1987L15.375 17.1987" stroke="#797F96" stroke-width="2" stroke-linecap="round"/>
</svg>
